<svg id="Capa_1" enable-background="new 0 0 512 512" height="512" viewBox="0 0 512 512" width="512" xmlns="http://www.w3.org/2000/svg"><g id="XMLID_574_"><path id="XMLID_580_" d="m181.067 452.245c.014-.474.036-.946.036-1.424 0-24.206-33.69-50.05-40.444-54.985l-6.49-4.743-6.49 4.743c-6.754 4.935-40.444 30.779-40.444 54.985 0 .478.022.95.036 1.424z"/><path id="XMLID_582_" d="m302.897 452.245c.014-.474.036-.946.036-1.424 0-24.206-33.69-50.05-40.444-54.985l-6.49-4.743-6.49 4.743c-6.754 4.935-40.444 30.779-40.444 54.985 0 .478.022.95.036 1.424z"/><path id="XMLID_583_" d="m0 482.245h512v29.51h-512z"/><path id="XMLID_584_" d="m424.728 452.245c.014-.474.036-.946.036-1.424 0-24.206-33.69-50.05-40.444-54.985l-6.49-4.743-6.49 4.743c-6.754 4.935-40.444 30.779-40.444 54.985 0 .478.022.95.036 1.424z"/><path id="XMLID_596_" d="m477.5 123.354h34.5v80.225h-34.5z"/><path id="XMLID_597_" d="m447.5 123.354h-383v201.324c3.686 28.425 28.033 50.458 57.445 50.458h268.109c29.413 0 53.759-22.033 57.445-50.458v-201.324z"/><path id="XMLID_598_" d="m1 123.354h33.5v80.225h-33.5z"/><path id="XMLID_599_" d="m177.291 68.87c0-2.732.355-3.356 1.852-5.985 2.302-4.043 5.781-10.154 5.781-20.828s-3.479-16.785-5.781-20.828c-1.496-2.628-1.852-3.252-1.852-5.985v-15h-30v15c0 10.674 3.479 16.785 5.781 20.828 1.496 2.628 1.852 3.252 1.852 5.985s-.355 3.356-1.852 5.985c-2.302 4.043-5.781 10.154-5.781 20.828v15h30z"/><path id="XMLID_600_" d="m267.184 68.87c0-2.732.355-3.356 1.852-5.985 2.302-4.043 5.781-10.154 5.781-20.828s-3.479-16.785-5.781-20.828c-1.496-2.628-1.852-3.252-1.852-5.985v-15h-30v15c0 10.674 3.479 16.785 5.781 20.828 1.496 2.628 1.852 3.252 1.852 5.985s-.355 3.356-1.852 5.985c-2.302 4.043-5.781 10.154-5.781 20.828v15h30z"/><path id="XMLID_602_" d="m357.077 68.87c0-2.732.355-3.356 1.852-5.985 2.302-4.043 5.781-10.154 5.781-20.828s-3.479-16.785-5.781-20.828c-1.496-2.628-1.852-3.252-1.852-5.985v-15h-30v15c0 10.674 3.479 16.785 5.781 20.828 1.496 2.628 1.852 3.252 1.852 5.985s-.355 3.356-1.852 5.985c-2.302 4.043-5.781 10.154-5.781 20.828v15h30z"/></g></svg>